<?xml version="1.0" encoding="iso-8859-1"?>
<!-- Generator: Adobe Illustrator 19.0.0, SVG Export Plug-In . SVG Version: 6.00 Build 0)  -->
<svg version="1.1" id="Layer_1" xmlns="http://www.w3.org/2000/svg" xmlns:xlink="http://www.w3.org/1999/xlink" x="0px" y="0px"
	 viewBox="0 0 512 512" style="enable-background:new 0 0 512 512;" fill="#337ab7" xml:space="preserve">
<g>
	<g>
		<g>
			<path d="M469.333,64h-32c-5.896,0-10.667,4.771-10.667,10.667c0,5.896,4.771,10.667,10.667,10.667h32
				c11.771,0,21.333,9.573,21.333,21.333v32c0,5.896,4.771,10.667,10.667,10.667c5.896,0,10.667-4.771,10.667-10.667v-32
				C512,83.135,492.854,64,469.333,64z"/>
			<path d="M501.333,362.667c-5.896,0-10.667,4.771-10.667,10.667v32c0,11.76-9.563,21.333-21.333,21.333h-32
				c-5.896,0-10.667,4.771-10.667,10.667c0,5.896,4.771,10.667,10.667,10.667h32C492.854,448,512,428.865,512,405.333v-32
				C512,367.438,507.229,362.667,501.333,362.667z"/>
			<path d="M74.667,426.667h-32c-11.771,0-21.333-9.573-21.333-21.333v-32c0-5.896-4.771-10.667-10.667-10.667
				C4.771,362.667,0,367.438,0,373.333v32C0,428.865,19.146,448,42.667,448h32c5.896,0,10.667-4.771,10.667-10.667
				C85.333,431.438,80.563,426.667,74.667,426.667z"/>
			<path d="M10.667,149.333c5.896,0,10.667-4.771,10.667-10.667v-32c0-11.76,9.563-21.333,21.333-21.333h32
				c5.896,0,10.667-4.771,10.667-10.667C85.333,68.771,80.563,64,74.667,64h-32C19.146,64,0,83.135,0,106.667v32
				C0,144.563,4.771,149.333,10.667,149.333z"/>
			<path d="M490.667,330.667c0-5.896-4.771-10.667-10.667-10.667H352V192h128c5.896,0,10.667-4.771,10.667-10.667
				c0-5.896-4.771-10.667-10.667-10.667H352V96c0-5.896-4.771-10.667-10.667-10.667c-5.896,0-10.667,4.771-10.667,10.667v74.667
				H181.333V96c0-5.896-4.771-10.667-10.667-10.667C164.771,85.333,160,90.104,160,96v74.667H32
				c-5.896,0-10.667,4.771-10.667,10.667C21.333,187.229,26.104,192,32,192h128v128H32c-5.896,0-10.667,4.771-10.667,10.667
				c0,5.896,4.771,10.667,10.667,10.667h128V416c0,5.896,4.771,10.667,10.667,10.667c5.896,0,10.667-4.771,10.667-10.667v-74.667
				h149.333V416c0,5.896,4.771,10.667,10.667,10.667c5.896,0,10.667-4.771,10.667-10.667v-74.667h128
				C485.896,341.333,490.667,336.563,490.667,330.667z M330.667,320H181.333V192h149.333V320z"/>
		</g>
	</g>
</g>
<g>
</g>
<g>
</g>
<g>
</g>
<g>
</g>
<g>
</g>
<g>
</g>
<g>
</g>
<g>
</g>
<g>
</g>
<g>
</g>
<g>
</g>
<g>
</g>
<g>
</g>
<g>
</g>
<g>
</g>
</svg>
