<svg height="511pt" viewBox="0 1 511.9996 511" width="511pt" fill="#337ab7" xmlns="http://www.w3.org/2000/svg"><path d="m496.996094 422.496094h-45v-172c.070312.054687.148437.105468.21875.15625 2.652344 1.917968 5.722656 2.839844 8.769531 2.839844 4.5625 0 9.066406-2.074219 12.007813-5.996094l36.003906-47.992188c2.414062-3.214844 3.433594-7.261718 2.835937-11.234375-.597656-3.976562-2.765625-7.542969-6.019531-9.902343-2.398438-1.742188-239.953125-174.246094-240.960938-174.976563-5.269531-3.851563-12.421874-3.851563-17.6875-.011719-.671874.488282-46 33.40625-97.164062 70.558594v-27.4375c0-8.285156-6.71875-15-15-15h-60c-8.285156 0-15 6.714844-15 15v92.789062c-30.777344 22.351563-53.085938 38.550782-53.8125 39.078126-3.253906 2.363281-5.421875 5.929687-6.019531 9.902343-.597657 3.976563.421875 8.023438 2.835937 11.238281l36.003906 47.988282c4.90625 6.542968 14.148438 7.945312 20.777344 3.160156.074219-.054688.140625-.105469.214844-.15625v172h-45c-8.285156 0-15 6.714844-15 15 0 8.28125 6.714844 14.996094 15 14.996094h125.726562l-19.144531 38.292968c-2.324219 4.652344-2.074219 10.171876.65625 14.59375 2.734375 4.421876 7.5625 7.113282 12.761719 7.113282h240.996094c5.199218 0 10.027344-2.691406 12.761718-7.113282 2.734376-4.421874 2.980469-9.941406.65625-14.59375l-19.144531-38.292968h126.726563c8.285156 0 15-6.714844 15-14.996094 0-8.285156-6.714844-15.003906-15-15.003906zm-406.996094-360.996094h30v34.222656c-10.160156 7.375-20.257812 14.707032-30 21.785156zm-35.835938 156.210938-18.019531-24.019532c151.269531-109.847656 202.480469-147.035156 219.855469-159.652344 33.4375 24.28125 153.539062 111.492188 219.855469 159.652344l-18.019531 24.019532c-1.335938-.960938-189.730469-136.96875-193.011719-139.339844-5.257813-3.824219-12.371094-3.824219-17.628907-.015625-.894531.644531-192.132812 138.707031-193.03125 139.355469zm35.835938 11.132812c110.152344-79.523438 150.902344-108.945312 166-119.84375 26.835938 19.375 109.058594 78.738281 165.996094 119.839844v193.660156h-61v-136c0-8.285156-6.714844-15-15-15h-180.996094c-8.285156 0-15 6.714844-15 15v136h-60zm181 193.652344v-121h60v121zm-91 0v-121h61v121zm-20.730469 60 15-30h162.457031l15 30zm0 0"/><path d="m256 241.5c24.8125 0 45-20.1875 45-45s-20.1875-45-45-45-45 20.1875-45 45 20.1875 45 45 45zm0-60c8.269531 0 15 6.726562 15 15 0 8.269531-6.730469 15-15 15-8.273438 0-15-6.730469-15-15 0-8.273438 6.726562-15 15-15zm0 0"/></svg>