<svg height="512pt" viewBox="0 0 512 512" width="512pt" fill="#f1f1f1" xmlns="http://www.w3.org/2000/svg"><path d="m126 463.125c4.144531 0 7.5-3.355469 7.5-7.5v-203.625h170.5c4.144531 0 7.5-3.355469 7.5-7.5s-3.355469-7.5-7.5-7.5h-14.390625l93.324219-226.210938c.949218-2.300781.691406-4.925781-.683594-7.003906-1.378906-2.074218-3.695312-3.332031-6.183594-3.355468l-48.800781-.429688c-.023437 0-.042969 0-.066406 0-3.4375 0-6.441407 2.34375-7.277344 5.683594l-57.71875 231.316406h-12.410156l-41.222657-165.210938c-1-4.019531-5.070312-6.464843-9.089843-5.464843-4.019531 1.003906-6.464844 5.074219-5.464844 9.09375l33.761719 135.304687-80.609375-195.390625 31.789062-.28125 7.316407 29.328125c1.003906 4.019532 5.074218 6.457032 9.09375 5.460938 4.019531-1.003906 6.460937-5.074219 5.460937-9.09375l-8.75-35.0625c-.835937-3.339844-3.835937-5.683594-7.277344-5.683594-.019531 0-.042969 0-.066406 0l-48.796875.429688c-2.492188.023437-4.8125 1.28125-6.1875 3.355468-1.375 2.078125-1.628906 4.703125-.679688 7.003906l93.320313 226.210938h-50.890625v-17.5h28.484375c4.121094 0 7.75-2.644531 9.035156-6.578125 1.296875-3.957031-.085937-8.265625-3.433593-10.714844l-34.816407-25.488281c-4.042969-2.964844-9.488281-2.964844-13.539062 0l-34.8125 25.488281c-3.347657 2.453125-4.730469 6.757813-3.433594 10.71875 1.285156 3.933594 4.914063 6.574219 9.035156 6.574219h28.480469v17.5h-30.5c-4.140625 0-7.5 3.355469-7.5 7.5v211.125c0 4.144531 3.359375 7.5 7.5 7.5zm207.046875-448.074219 31.785156.28125-80.613281 195.394531zm-169.046875 175.300781 19.324219 14.148438h-38.648438zm0 0"/><path d="m283.5 283.5c0-4.144531-3.355469-7.5-7.5-7.5h-40c-4.144531 0-7.5 3.355469-7.5 7.5v40c0 4.144531 3.355469 7.5 7.5 7.5h40c4.144531 0 7.5-3.355469 7.5-7.5zm-15 32.5h-25v-25h25zm0 0"/><path d="m203.5 283.5c0-4.144531-3.355469-7.5-7.5-7.5h-40c-4.140625 0-7.5 3.355469-7.5 7.5v40c0 4.144531 3.359375 7.5 7.5 7.5h40c4.144531 0 7.5-3.355469 7.5-7.5zm-15 32.5h-25v-25h25zm0 0"/><path d="m363.5 283.5c0-4.144531-3.359375-7.5-7.5-7.5h-40c-4.144531 0-7.5 3.355469-7.5 7.5v40c0 4.144531 3.355469 7.5 7.5 7.5h40c4.140625 0 7.5-3.355469 7.5-7.5zm-15 32.5h-25v-25h25zm0 0"/><path d="m283.5 361.5c0-4.144531-3.355469-7.5-7.5-7.5h-40c-4.144531 0-7.5 3.355469-7.5 7.5v40c0 4.144531 3.355469 7.5 7.5 7.5h40c4.144531 0 7.5-3.355469 7.5-7.5zm-15 32.5h-25v-25h25zm0 0"/><path d="m203.5 361.5c0-4.144531-3.355469-7.5-7.5-7.5h-40c-4.140625 0-7.5 3.355469-7.5 7.5v40c0 4.144531 3.359375 7.5 7.5 7.5h40c4.144531 0 7.5-3.355469 7.5-7.5zm-15 32.5h-25v-25h25zm0 0"/><path d="m363.5 361.5c0-4.144531-3.359375-7.5-7.5-7.5h-40c-4.144531 0-7.5 3.355469-7.5 7.5v40c0 4.144531 3.355469 7.5 7.5 7.5h40c4.140625 0 7.5-3.355469 7.5-7.5zm-15 32.5h-25v-25h25zm0 0"/><path d="m276 431h-40c-4.144531 0-7.5 3.355469-7.5 7.5v40c0 4.144531 3.355469 7.5 7.5 7.5h40c4.144531 0 7.5-3.355469 7.5-7.5v-40c0-4.144531-3.359375-7.5-7.5-7.5zm-7.5 40h-25v-25h25zm0 0"/><path d="m196 431h-40c-4.140625 0-7.5 3.355469-7.5 7.5v40c0 4.144531 3.359375 7.5 7.5 7.5h40c4.144531 0 7.5-3.355469 7.5-7.5v-40c0-4.144531-3.355469-7.5-7.5-7.5zm-7.5 40h-25v-25h25zm0 0"/><path d="m356 431h-40c-4.144531 0-7.5 3.355469-7.5 7.5v40c0 4.144531 3.355469 7.5 7.5 7.5h40c4.140625 0 7.5-3.355469 7.5-7.5v-40c0-4.144531-3.359375-7.5-7.5-7.5zm-7.5 40h-25v-25h25zm0 0"/><path d="m83.589844 93.257812-16.703125-2.40625-7.457031-14.980468c0-.003906 0-.003906 0-.003906-2.265626-4.542969-6.835938-7.367188-11.929688-7.367188-5.089844 0-9.660156 2.824219-11.921875 7.367188l-7.460937 14.984374-16.699219 2.40625c-5.070313.730469-9.199219 4.203126-10.769531 9.0625-1.5625 4.839844-.257813 10.042969 3.40625 13.582032l12.046874 11.644531-2.84375 16.421875c-.863281 4.992188 1.148438 9.953125 5.25 12.949219 4.128907 3.015625 9.507813 3.417969 14.042969 1.054687l14.953125-7.792968 14.953125 7.792968c1.960938 1.023438 4.078125 1.527344 6.183594 1.527344 2.765625 0 5.515625-.871094 7.859375-2.582031 4.101562-2.996094 6.109375-7.957031 5.246094-12.949219l-2.839844-16.421875 12.042969-11.644531c3.664062-3.539063 4.96875-8.742188 3.40625-13.582032-1.570313-4.859374-5.695313-8.332031-10.765625-9.0625zm-15.773438 24.144532c-3.160156 3.054687-4.597656 7.453125-3.851562 11.773437l2.40625 13.921875-12.695313-6.617187c-1.933593-1.007813-4.054687-1.511719-6.175781-1.511719-2.117188 0-4.238281.503906-6.171875 1.511719l-12.695313 6.621093 2.40625-13.925781c.75-4.320312-.691406-8.71875-3.847656-11.769531l-10.144531-9.804688 14.078125-2.027343c4.332031-.625 8.078125-3.328125 10.019531-7.234375l6.355469-12.769532 6.355469 12.769532c1.945312 3.90625 5.691406 6.609375 10.023437 7.234375l14.078125 2.027343zm0 0"/><path d="m511.351562 133.320312c-1.570312-4.859374-5.699218-8.332031-10.769531-9.0625l-16.699219-2.40625-7.460937-14.980468c-2.261719-4.546875-6.832031-7.367188-11.925781-7.371094-5.09375 0-9.664063 2.824219-11.925782 7.371094l-7.457031 14.980468-16.703125 2.40625c-5.070312.730469-9.195312 4.203126-10.765625 9.0625-1.5625 4.839844-.261719 10.042969 3.402344 13.582032l12.046875 11.644531-2.84375 16.421875c-.859375 4.992188 1.148438 9.953125 5.25 12.949219 4.128906 3.015625 9.511719 3.417969 14.042969 1.054687l14.953125-7.792968 14.953125 7.792968c1.960937 1.023438 4.078125 1.527344 6.183593 1.527344 2.769532 0 5.515626-.871094 7.859376-2.582031 4.101562-2.996094 6.109374-7.957031 5.246093-12.949219l-2.839843-16.421875 12.046874-11.644531c3.664063-3.539063 4.96875-8.742188 3.40625-13.582032zm-26.542968 15.082032c-3.15625 3.054687-4.597656 7.453125-3.851563 11.773437l2.410157 13.921875-12.699219-6.617187c-3.863281-2.015625-8.480469-2.015625-12.34375 0l-12.699219 6.617187 2.410156-13.921875c.746094-4.320312-.691406-8.722656-3.851562-11.773437l-10.144532-9.800782 14.078126-2.027343c4.332031-.625 8.078124-3.328125 10.023437-7.234375l6.355469-12.769532 6.355468 12.769532c1.941407 3.90625 5.6875 6.609375 10.019532 7.234375l14.078125 2.027343zm0 0"/><path d="m383.980469 219.5c4.121093 0 7.753906-2.644531 9.039062-6.578125 1.292969-3.957031-.089843-8.265625-3.4375-10.714844l-34.8125-25.488281c-4.046875-2.964844-9.488281-2.964844-13.539062 0l-34.816407 25.488281c-3.347656 2.453125-4.726562 6.757813-3.433593 10.71875 1.285156 3.933594 4.917969 6.574219 9.035156 6.574219h28.484375v17.5h-4.5c-4.144531 0-7.5 3.355469-7.5 7.5s3.355469 7.5 7.5 7.5h42.5v245h-245v-9.625c0-4.144531-3.355469-7.5-7.5-7.5-4.140625 0-7.5 3.355469-7.5 7.5v17.125c0 4.144531 3.359375 7.5 7.5 7.5h259.996094c4.144531 0 7.5-3.355469 7.5-7.5v-260c0-4.144531-3.355469-7.5-7.5-7.5h-30.5v-17.5zm-35.980469-29.148438 19.324219 14.148438h-38.648438zm0 0"/></svg>