<svg height="512pt" viewBox="0 0 512 512" width="512pt" fill="#337ab7" xmlns="http://www.w3.org/2000/svg"><path d="m362.015625 314.828125c-2.378906-9.5-10.910156-16.160156-20.699219-16.160156h-320c-13.652344 0-24.007812 13.253906-20.695312 26.503906l42.667968 170.667969c2.375 9.5 10.90625 16.160156 20.695313 16.160156h320c13.652344 0 24.007813-13.253906 20.695313-26.507812zm-26.6875 69.171875h-62.6875l-10.667969-42.667969h62.6875zm-169.351563 0-10.667968-42.667969h62.6875l10.664062 42.667969zm73.351563 42.667969 10.667969 42.664062h-62.6875l-10.664063-42.664062zm-128-85.335938 10.667969 42.667969h-62.6875l-10.667969-42.667969zm-41.355469 85.335938h62.6875l10.667969 42.664062h-62.6875zm224.003906 42.664062-10.667968-42.664062h62.6875l10.667968 42.664062zm0 0"/><path d="m383.984375 64c-35.289063 0-64 28.710938-64 64s28.710937 64 64 64 64-28.710938 64-64-28.710937-64-64-64zm0 85.332031c-11.761719 0-21.332031-9.570312-21.332031-21.332031s9.570312-21.332031 21.332031-21.332031 21.332031 9.570312 21.332031 21.332031-9.570312 21.332031-21.332031 21.332031zm0 0"/><path d="m362.652344 0h42.664062v42.667969h-42.664062zm0 0"/><path d="m278.382812 52.566406 30.167969-30.167968 30.167969 30.167968-30.167969 30.167969zm0 0"/><path d="m255.984375 106.667969h42.667969v42.664062h-42.667969zm0 0"/><path d="m278.390625 203.441406 30.167969-30.171875 30.171875 30.171875-30.171875 30.167969zm0 0"/><path d="m362.652344 213.332031h42.664062v42.667969h-42.664062zm0 0"/><path d="m429.230469 203.40625 30.167969-30.171875 30.167968 30.171875-30.167968 30.167969zm0 0"/><path d="m469.316406 106.667969h42.667969v42.664062h-42.667969zm0 0"/><path d="m429.21875 52.5625 30.167969-30.171875 30.171875 30.164063-30.164063 30.175781zm0 0"/></svg>